<?xml version="1.0" standalone="no"?><!DOCTYPE svg PUBLIC "-//W3C//DTD SVG 1.1//EN" "http://www.w3.org/Graphics/SVG/1.1/DTD/svg11.dtd"><svg t="1634442326395" class="icon" viewBox="0 0 1024 1024" version="1.1" xmlns="http://www.w3.org/2000/svg" p-id="5510" xmlns:xlink="http://www.w3.org/1999/xlink" width="200" height="200"><defs><style type="text/css"></style></defs><path d="M884.7 127.6H140.3c-49.5 0-89.7 40.2-89.7 89.7v456.5c0 49.5 40.2 89.7 89.7 89.7h252.6l119.4 136.7 124-136.7h248.3c49.5 0 89.7-40.2 89.7-89.7V217.3c0.1-49.5-40.1-89.7-89.6-89.7z m70.8 546.2c0 39.1-31.8 70.9-70.9 70.9H628L512.6 871.9 401.5 744.7H140.3c-39.1 0-70.9-31.8-70.9-70.9V217.3c0-39.1 31.8-70.9 70.9-70.9h744.4c39.1 0 70.9 31.8 70.9 70.9v456.5z" fill="" p-id="5511"></path><path d="M220.6 265.8h528.2v18.9H220.6zM826.2 290.6c8.5 0 15.3-6.9 15.3-15.3s-6.9-15.3-15.3-15.3-15.3 6.9-15.3 15.3 6.9 15.3 15.3 15.3zM222.6 394.7h528.2v18.9H222.6z" fill="" p-id="5512"></path><path d="M828.2 404.1m-15.3 0a15.3 15.3 0 1 0 30.6 0 15.3 15.3 0 1 0-30.6 0Z" fill="" p-id="5513"></path><path d="M222.6 523.5h528.2v18.9H222.6z" fill="" p-id="5514"></path><path d="M828.2 532.9m-15.3 0a15.3 15.3 0 1 0 30.6 0 15.3 15.3 0 1 0-30.6 0Z" fill="" p-id="5515"></path></svg>